# xmcd CD database file
#
# Track frame offsets:
#	150
#	40173
#	84017
#	120397
#	165902
#	197934
#	234111
#	255764
#
# Disc length: 3660 seconds
#
# Revision: 0
# Processed by: cddbd v1.5.2PL0 Copyright (c) Steve Scherf et al.
# Submitted via: CDex 1.51
#
DISCID=490e4a08
DTITLE=Christoph Hörmann Quartett - I Know I'm Late - A Tribute to Dexter Gordon
DYEAR=2011
DGENRE=Jazz
TTITLE0=01 - Fried Bananas
TTITLE1=02 - You'd Be So Nice To Come Home To
TTITLE2=03 - I Know I'm Late
TTITLE3=04 - Cheese Cake
TTITLE4=05 - Montmartre
TTITLE5=06 - Darn That Dream
TTITLE6=07 - Tadd's Delight
TTITLE7=08 - Freight Train
EXTD=YEAR: 2011
EXTT0=
EXTT1=
EXTT2=
EXTT3=
EXTT4=
EXTT5=
EXTT6=
EXTT7=
PLAYORDER=
